<svg width="34" height="32" viewBox="0 0 34 32" fill="none" xmlns="http://www.w3.org/2000/svg">
<path d="M6.29126 13.2793C6.14205 12.0856 7.07282 11.0312 8.27582 11.0312H21.9248C23.0293 11.0312 23.9248 11.9267 23.9248 13.0313V16.0596C23.9248 17.0919 23.1392 17.9546 22.1114 18.0509L8.99476 19.2806C7.91895 19.3815 6.95755 18.6096 6.82352 17.5374L6.29126 13.2793Z" stroke="white"/>
<path d="M6.53691 16.3006L5.58196 7.70597C5.52569 7.19954 5.09762 6.81641 4.58808 6.81641H2.84863" stroke="white" stroke-linecap="round"/>
<path d="M12.8867 24.7317C12.8867 26.2015 11.6952 27.3931 10.2253 27.3931C8.75551 27.3931 7.56396 26.2015 7.56396 24.7317C7.56396 23.2619 8.75551 22.0703 10.2253 22.0703C11.6952 22.0703 12.8867 23.2619 12.8867 24.7317Z" stroke="white"/>
<path d="M22.3706 24.7317C22.3706 26.2015 21.1791 27.3931 19.7092 27.3931C18.2394 27.3931 17.0479 26.2015 17.0479 24.7317C17.0479 23.2619 18.2394 22.0703 19.7092 22.0703C21.1791 22.0703 22.3706 23.2619 22.3706 24.7317Z" stroke="white"/>
<circle cx="25.2419" cy="8.15495" r="7.51628" fill="#F2994A" stroke="#022444"/>
<path d="M25.6051 11.2473C25.115 11.2473 24.6975 11.114 24.3526 10.8472C24.0077 10.5782 23.7442 10.1889 23.562 9.67922C23.3798 9.16736 23.2888 8.54922 23.2888 7.82481C23.2888 7.10473 23.3798 6.48984 23.562 5.98015C23.7464 5.46829 24.011 5.07789 24.3559 4.80894C24.7029 4.53783 25.1193 4.40227 25.6051 4.40227C26.091 4.40227 26.5063 4.53783 26.8512 4.80894C27.1982 5.07789 27.4628 5.46829 27.645 5.98015C27.8294 6.48984 27.9215 7.10473 27.9215 7.82481C27.9215 8.54922 27.8304 9.16736 27.6483 9.67922C27.4661 10.1889 27.2025 10.5782 26.8577 10.8472C26.5128 11.114 26.0953 11.2473 25.6051 11.2473ZM25.6051 10.5316C26.091 10.5316 26.4684 10.2974 26.7373 9.82888C27.0063 9.36039 27.1407 8.69237 27.1407 7.82481C27.1407 7.24788 27.0789 6.75662 26.9553 6.35103C26.8338 5.94545 26.6582 5.63638 26.4282 5.42383C26.2005 5.21127 25.9261 5.105 25.6051 5.105C25.1236 5.105 24.7473 5.34249 24.4762 5.81748C24.2051 6.2903 24.0696 6.95941 24.0696 7.82481C24.0696 8.40174 24.1303 8.89191 24.2517 9.29533C24.3732 9.69874 24.5478 10.0056 24.7755 10.216C25.0054 10.4264 25.282 10.5316 25.6051 10.5316Z" fill="white"/>
</svg>
