<svg width="13" height="19" viewBox="0 0 13 19" fill="none" xmlns="http://www.w3.org/2000/svg">
<path d="M6.39716 11.5909C4.4168 11.5909 2.81738 10.0758 2.81738 8.18182V3.40909C2.81738 1.5151 4.4168 0 6.39716 0C8.37751 0 9.97694 1.5151 9.97694 3.40909V8.18182C9.97694 10.0756 8.37751 11.5909 6.39716 11.5909ZM6.39716 1.51502C5.25469 1.51502 4.34079 2.34842 4.34079 3.40901V8.18174C4.34079 9.24233 5.25469 10.0757 6.39716 10.0757C7.53963 10.0757 8.45353 9.24233 8.45353 8.18174V3.40901C8.45353 2.34842 7.53963 1.51502 6.39716 1.51502Z" fill="#2674F0"/>
<path d="M6.39785 14.2412C2.89425 14.2412 0 11.4382 0 8.02899V6.58966C0 6.13516 0.304583 5.83203 0.761703 5.83203C1.21865 5.83203 1.52341 6.13499 1.52341 6.58966V8.02899C1.52341 10.6047 3.73217 12.7258 6.39769 12.7258C9.0632 12.7258 11.272 10.6046 11.272 8.02899V6.58966C11.272 6.13516 11.5766 5.83203 12.0337 5.83203C12.4906 5.83203 12.7954 6.13499 12.7954 6.58966V8.02899C12.7954 11.4381 9.90108 14.2412 6.39752 14.2412H6.39785Z" fill="#2674F0"/>
<path d="M6.39842 18.1812C5.94147 18.1812 5.63672 17.8782 5.63672 17.4236V13.4842C5.63672 13.0297 5.9413 12.7266 6.39842 12.7266C6.85537 12.7266 7.16012 13.0295 7.16012 13.4842V17.4236C7.16012 17.8782 6.85538 18.1812 6.39842 18.1812Z" fill="#2674F0"/>
<path d="M7.61697 18.1832H5.25584C4.7989 18.1832 4.49414 17.8803 4.49414 17.4256C4.49414 16.9711 4.79872 16.668 5.25584 16.668H7.61697C8.07392 16.668 8.37867 16.9709 8.37867 17.4256C8.37867 17.8803 7.99774 18.1832 7.61697 18.1832Z" fill="#2674F0"/>
</svg>
