<svg width="50" height="16" viewBox="0 0 50 16" fill="none" xmlns="http://www.w3.org/2000/svg">
<path d="M1.128 12.5V4.1H2.412L6.084 10.232H5.412L9.024 4.1H10.308L10.32 12.5H8.844L8.832 6.416H9.144L6.072 11.54H5.376L2.256 6.416H2.616V12.5H1.128ZM15.3249 12.584C14.6689 12.584 14.0849 12.444 13.5729 12.164C13.0609 11.876 12.6569 11.484 12.3609 10.988C12.0649 10.492 11.9169 9.928 11.9169 9.296C11.9169 8.656 12.0649 8.092 12.3609 7.604C12.6569 7.108 13.0609 6.72 13.5729 6.44C14.0849 6.16 14.6689 6.02 15.3249 6.02C15.9889 6.02 16.5769 6.16 17.0889 6.44C17.6089 6.72 18.0129 7.104 18.3009 7.592C18.5969 8.08 18.7449 8.648 18.7449 9.296C18.7449 9.928 18.5969 10.492 18.3009 10.988C18.0129 11.484 17.6089 11.876 17.0889 12.164C16.5769 12.444 15.9889 12.584 15.3249 12.584ZM15.3249 11.3C15.6929 11.3 16.0209 11.22 16.3089 11.06C16.5969 10.9 16.8209 10.668 16.9809 10.364C17.1489 10.06 17.2329 9.704 17.2329 9.296C17.2329 8.88 17.1489 8.524 16.9809 8.228C16.8209 7.924 16.5969 7.692 16.3089 7.532C16.0209 7.372 15.6969 7.292 15.3369 7.292C14.9689 7.292 14.6409 7.372 14.3529 7.532C14.0729 7.692 13.8489 7.924 13.6809 8.228C13.5129 8.524 13.4289 8.88 13.4289 9.296C13.4289 9.704 13.5129 10.06 13.6809 10.364C13.8489 10.668 14.0729 10.9 14.3529 11.06C14.6409 11.22 14.9649 11.3 15.3249 11.3ZM20.1793 12.5V6.092H21.6073V7.856L21.4393 7.34C21.6313 6.908 21.9313 6.58 22.3393 6.356C22.7553 6.132 23.2713 6.02 23.8873 6.02V7.448C23.8233 7.432 23.7633 7.424 23.7073 7.424C23.6513 7.416 23.5953 7.412 23.5393 7.412C22.9713 7.412 22.5193 7.58 22.1833 7.916C21.8473 8.244 21.6793 8.736 21.6793 9.392V12.5H20.1793ZM28.1132 12.584C27.4012 12.584 26.7772 12.444 26.2412 12.164C25.7132 11.876 25.3012 11.484 25.0052 10.988C24.7172 10.492 24.5732 9.928 24.5732 9.296C24.5732 8.656 24.7132 8.092 24.9932 7.604C25.2812 7.108 25.6732 6.72 26.1692 6.44C26.6732 6.16 27.2452 6.02 27.8852 6.02C28.5092 6.02 29.0652 6.156 29.5532 6.428C30.0412 6.7 30.4252 7.084 30.7052 7.58C30.9852 8.076 31.1252 8.66 31.1252 9.332C31.1252 9.396 31.1212 9.468 31.1132 9.548C31.1132 9.628 31.1092 9.704 31.1012 9.776H25.7612V8.78H30.3092L29.7212 9.092C29.7292 8.724 29.6532 8.4 29.4932 8.12C29.3332 7.84 29.1132 7.62 28.8332 7.46C28.5612 7.3 28.2452 7.22 27.8852 7.22C27.5172 7.22 27.1932 7.3 26.9132 7.46C26.6412 7.62 26.4252 7.844 26.2652 8.132C26.1132 8.412 26.0372 8.744 26.0372 9.128V9.368C26.0372 9.752 26.1252 10.092 26.3012 10.388C26.4772 10.684 26.7252 10.912 27.0452 11.072C27.3652 11.232 27.7332 11.312 28.1492 11.312C28.5092 11.312 28.8332 11.256 29.1212 11.144C29.4092 11.032 29.6652 10.856 29.8892 10.616L30.6932 11.54C30.4052 11.876 30.0412 12.136 29.6012 12.32C29.1692 12.496 28.6732 12.584 28.1132 12.584Z" fill="#81C115"/>
<path d="M42.2745 2.04011C42.0987 2.21592 42 2.45433 42 2.70292C42 2.95151 42.0987 3.18992 42.2745 3.36573L46.9151 8.00634L42.2745 12.6469C42.1037 12.8238 42.0092 13.0606 42.0114 13.3064C42.0135 13.5522 42.1121 13.7873 42.2859 13.9611C42.4597 14.135 42.6949 14.2336 42.9407 14.2357C43.1865 14.2378 43.4233 14.1433 43.6001 13.9726L48.9036 8.66915C49.0793 8.49334 49.178 8.25493 49.178 8.00634C49.178 7.75775 49.0793 7.51934 48.9036 7.34353L43.6001 2.04011C43.4243 1.86436 43.1859 1.76562 42.9373 1.76562C42.6887 1.76562 42.4503 1.86436 42.2745 2.04011Z" fill="#81C115"/>
</svg>
