<svg width="124" height="30" viewBox="0 0 124 30" fill="none" xmlns="http://www.w3.org/2000/svg">
<path d="M48.1605 24.0094C47.1344 22.1869 46.0241 20.3875 44.8295 18.611C43.635 16.8345 42.3639 15.1575 41.0162 13.5801V24.0094H37.4785V8.08984H40.396C40.9013 8.59523 41.4603 9.21547 42.0729 9.95057C42.6855 10.6857 43.3057 11.4744 43.9336 12.3167C44.5768 13.1437 45.2124 14.0089 45.8403 14.9125C46.4682 15.8008 47.0578 16.6584 47.6091 17.4854V8.08984H51.1698V24.0094H48.1605Z" fill="white"/>
<path d="M53.5786 18.0597C53.5786 16.9876 53.7394 16.0534 54.061 15.2571C54.3979 14.4454 54.8344 13.7716 55.3704 13.2356C55.9064 12.6995 56.519 12.2937 57.2082 12.018C57.9126 11.7424 58.6324 11.6045 59.3675 11.6045C61.0828 11.6045 62.4381 12.1329 63.4336 13.1896C64.429 14.231 64.9267 15.7701 64.9267 17.807C64.9267 18.0061 64.9191 18.2281 64.9038 18.4732C64.8885 18.7029 64.8731 18.9096 64.8578 19.0934H57.0933C57.1699 19.7979 57.4991 20.3569 58.0811 20.7703C58.6631 21.1838 59.4441 21.3906 60.4242 21.3906C61.0521 21.3906 61.6647 21.337 62.262 21.2298C62.8746 21.1073 63.3723 20.9618 63.7552 20.7933L64.2146 23.5729C64.0308 23.6648 63.7858 23.7567 63.4795 23.8486C63.1732 23.9405 62.8286 24.017 62.4458 24.0783C62.0782 24.1549 61.68 24.2161 61.2512 24.2621C60.8224 24.308 60.3936 24.331 59.9648 24.331C58.8775 24.331 57.928 24.1702 57.1163 23.8486C56.3199 23.527 55.6537 23.0905 55.1177 22.5392C54.597 21.9725 54.2065 21.3064 53.9462 20.5406C53.7011 19.7749 53.5786 18.9479 53.5786 18.0597ZM61.6188 16.7503C61.6035 16.4593 61.5499 16.176 61.458 15.9003C61.3814 15.6246 61.2512 15.3796 61.0675 15.1652C60.899 14.9508 60.6769 14.7747 60.4013 14.6368C60.1409 14.499 59.8117 14.4301 59.4135 14.4301C59.0306 14.4301 58.7013 14.499 58.4257 14.6368C58.15 14.7594 57.9203 14.9278 57.7365 15.1422C57.5527 15.3566 57.4073 15.6093 57.3001 15.9003C57.2082 16.176 57.1393 16.4593 57.0933 16.7503H61.6188Z" fill="white"/>
<path d="M74.3908 14.9584C74.0845 14.8819 73.7246 14.8053 73.3111 14.7287C72.8976 14.6368 72.4535 14.5909 71.9788 14.5909C71.7644 14.5909 71.504 14.6139 71.1977 14.6598C70.9067 14.6904 70.6847 14.7287 70.5315 14.7747V24.0094H67.1087V12.5694C67.7213 12.355 68.4411 12.1559 69.2681 11.9721C70.1104 11.773 71.0446 11.6735 72.0706 11.6735C72.2544 11.6735 72.4765 11.6888 72.7368 11.7194C72.9972 11.7347 73.2575 11.7654 73.5179 11.8113C73.7782 11.8419 74.0386 11.8879 74.2989 11.9491C74.5593 11.9951 74.7813 12.0563 74.9651 12.1329L74.3908 14.9584Z" fill="white"/>
<path d="M87.4184 17.9448C87.4184 18.8943 87.2806 19.7672 87.0049 20.5636C86.7293 21.3446 86.3311 22.0185 85.8104 22.5851C85.2897 23.1365 84.6618 23.5653 83.9267 23.8716C83.2069 24.1778 82.3952 24.331 81.4916 24.331C80.6034 24.331 79.7917 24.1778 79.0566 23.8716C78.3368 23.5653 77.7166 23.1365 77.1959 22.5851C76.6752 22.0185 76.2694 21.3446 75.9784 20.5636C75.6874 19.7672 75.5419 18.8943 75.5419 17.9448C75.5419 16.9953 75.6874 16.13 75.9784 15.349C76.2847 14.5679 76.6982 13.9017 77.2189 13.3504C77.7549 12.7991 78.3828 12.3703 79.1026 12.064C79.8377 11.7577 80.634 11.6045 81.4916 11.6045C82.3646 11.6045 83.1609 11.7577 83.8807 12.064C84.6158 12.3703 85.2437 12.7991 85.7644 13.3504C86.2851 13.9017 86.691 14.5679 86.9819 15.349C87.2729 16.13 87.4184 16.9953 87.4184 17.9448ZM83.9267 17.9448C83.9267 16.8881 83.7123 16.0611 83.2835 15.4638C82.87 14.8512 82.2727 14.545 81.4916 14.545C80.7106 14.545 80.1057 14.8512 79.6769 15.4638C79.2481 16.0611 79.0337 16.8881 79.0337 17.9448C79.0337 19.0015 79.2481 19.8438 79.6769 20.4717C80.1057 21.0843 80.7106 21.3906 81.4916 21.3906C82.2727 21.3906 82.87 21.0843 83.2835 20.4717C83.7123 19.8438 83.9267 19.0015 83.9267 17.9448Z" fill="white"/>
<path d="M98.46 14.2233C98.1843 14.5296 97.8091 14.9431 97.3344 15.4638C96.8749 15.9845 96.3772 16.5588 95.8412 17.1867C95.3052 17.8146 94.7615 18.4732 94.2102 19.1623C93.6742 19.8515 93.1841 20.5177 92.74 21.1609H98.5749V24.0094H88.5821V21.9879C88.9037 21.4365 89.2866 20.8469 89.7307 20.219C90.1901 19.5758 90.6649 18.9326 91.1549 18.2894C91.6603 17.6462 92.158 17.0259 92.6481 16.4287C93.1382 15.8161 93.59 15.2647 94.0035 14.7747H88.8577V11.9262H98.46V14.2233Z" fill="white"/>
<path d="M111.378 17.9448C111.378 18.8943 111.24 19.7672 110.965 20.5636C110.689 21.3446 110.291 22.0185 109.77 22.5851C109.25 23.1365 108.622 23.5653 107.887 23.8716C107.167 24.1778 106.355 24.331 105.452 24.331C104.563 24.331 103.752 24.1778 103.017 23.8716C102.297 23.5653 101.676 23.1365 101.156 22.5851C100.635 22.0185 100.229 21.3446 99.9383 20.5636C99.6473 19.7672 99.5018 18.8943 99.5018 17.9448C99.5018 16.9953 99.6473 16.13 99.9383 15.349C100.245 14.5679 100.658 13.9017 101.179 13.3504C101.715 12.7991 102.343 12.3703 103.062 12.064C103.798 11.7577 104.594 11.6045 105.452 11.6045C106.324 11.6045 107.121 11.7577 107.841 12.064C108.576 12.3703 109.204 12.7991 109.724 13.3504C110.245 13.9017 110.651 14.5679 110.942 15.349C111.233 16.13 111.378 16.9953 111.378 17.9448ZM107.887 17.9448C107.887 16.8881 107.672 16.0611 107.243 15.4638C106.83 14.8512 106.233 14.545 105.452 14.545C104.671 14.545 104.066 14.8512 103.637 15.4638C103.208 16.0611 102.994 16.8881 102.994 17.9448C102.994 19.0015 103.208 19.8438 103.637 20.4717C104.066 21.0843 104.671 21.3906 105.452 21.3906C106.233 21.3906 106.83 21.0843 107.243 20.4717C107.672 19.8438 107.887 19.0015 107.887 17.9448Z" fill="white"/>
<path d="M113.57 12.3396C114.152 12.1712 114.903 12.018 115.822 11.8802C116.74 11.7271 117.705 11.6505 118.716 11.6505C119.742 11.6505 120.592 11.7883 121.266 12.064C121.955 12.3243 122.499 12.6995 122.897 13.1896C123.295 13.6797 123.578 14.2616 123.747 14.9355C123.915 15.6093 124 16.3597 124 17.1867V24.0094H120.577V17.6002C120.577 16.4976 120.431 15.7165 120.14 15.2571C119.849 14.7976 119.306 14.5679 118.509 14.5679C118.264 14.5679 118.004 14.5832 117.728 14.6139C117.453 14.6292 117.208 14.6522 116.993 14.6828V24.0094H113.57V12.3396Z" fill="white"/>
<path d="M25.8949 27.2973C25.8949 26.6012 25.6183 25.9335 25.1261 25.4412C24.6338 24.949 23.9661 24.6726 23.27 24.6726C22.5739 24.6726 21.9062 24.949 21.414 25.4412C20.9217 25.9335 20.6451 26.6012 20.6451 27.2973C20.6451 27.9936 20.9217 28.6611 21.414 29.1533C21.9062 29.6456 22.5739 29.9222 23.27 29.9222C23.9682 29.929 24.6397 29.6545 25.1336 29.1608C25.6272 28.6672 25.9017 27.9955 25.8949 27.2973Z" fill="white" fill-opacity="0.8"/>
<path fill-rule="evenodd" clip-rule="evenodd" d="M3.15388 4.46333C3.97997 4.46783 4.78093 4.74964 5.42789 5.26368C6.07932 5.78104 6.53666 6.50341 6.72565 7.31339L6.72815 7.32408L6.9171 7.95422H31.3277L28.8834 19.4314L28.8832 19.4321C28.667 20.42 28.1213 21.3052 27.3358 21.9422C26.5505 22.5792 25.5719 22.9304 24.5608 22.9383H8.92938L5.28274 7.6655L5.28245 7.66432C5.16581 7.18313 4.89231 6.75414 4.5044 6.44568C4.11671 6.13695 3.63742 5.96668 3.14219 5.96089L3.14012 5.96087H0.743033L0.736749 5.96109C0.539542 5.96811 0.348166 5.89278 0.208705 5.75314L0.208407 5.75285C0.068761 5.61336 -0.00656796 5.42198 0.000449978 5.2248L0.000673721 5.21851V5.21222C0.000673721 5.01344 0.0795999 4.82297 0.219832 4.68274C0.360399 4.54217 0.550899 4.46333 0.749314 4.46333H3.15388ZM29.483 9.45211L7.24731 9.45207L10.098 21.4408H24.5635L24.5649 21.4408C25.235 21.4353 25.8832 21.1997 26.4004 20.7737C26.9174 20.3479 27.2727 19.7579 27.4068 19.1019L27.4072 19.1L29.483 9.45211Z" fill="#EC7C03"/>
<path d="M13.6894 27.2973C13.6894 26.6012 13.4128 25.9335 12.9205 25.4412C12.4283 24.949 11.7606 24.6726 11.0645 24.6726C10.3684 24.6726 9.7007 24.949 9.20846 25.4412C8.71622 25.9335 8.43963 26.6012 8.43963 27.2973C8.43963 27.9936 8.71618 28.6611 9.20846 29.1533C9.7007 29.6456 10.3684 29.9222 11.0645 29.9222C11.7627 29.929 12.4342 29.6545 12.928 29.1608C13.4217 28.6672 13.696 27.9955 13.6894 27.2973Z" fill="white" fill-opacity="0.8"/>
<path d="M8.36928 5.27094C8.18706 4.68019 8.49223 4.04903 9.06842 3.82498L18.6983 0.0805117C19.3272 -0.164011 20.0326 0.168273 20.2445 0.808852L22.3513 7.17726H8.95732L8.36928 5.27094Z" fill="#EC7C03"/>
<path d="M21.5638 2.12444L28.6094 3.36292C29.3212 3.48803 29.7538 4.21833 29.5215 4.90264L28.7493 7.17726H23.2372L21.5638 2.12444Z" fill="#EC7C03"/>
<path d="M24.3515 13.7122C24.7018 13.7122 24.9844 13.4331 24.9844 13.0877C24.9844 12.742 24.7015 12.4632 24.3515 12.4632L13.1241 12.4629C12.7738 12.4629 12.4912 12.742 12.4912 13.0874C12.4912 13.4331 12.7741 13.7119 13.1241 13.7119L24.3515 13.7122Z" fill="#EC7C03"/>
<path d="M23.0388 16.2109H14.4382C14.0524 16.2109 13.7412 16.4901 13.7412 16.8356C13.7412 17.1813 14.0528 17.4603 14.4382 17.4603H23.0388C23.4245 17.4603 23.7358 17.181 23.7358 16.8356C23.7358 16.4899 23.4245 16.2109 23.0388 16.2109Z" fill="#EC7C03"/>
</svg>
