<svg width="24" height="28" viewBox="0 0 24 28" fill="none" xmlns="http://www.w3.org/2000/svg">
<path d="M12.1224 25.7742L12.1231 25.7742C13.3513 25.7716 14.3437 24.7716 14.3396 23.5428L12.1224 25.7742ZM12.1224 25.7742C10.8939 25.7785 9.89483 24.7864 9.89161 23.557L9.89161 23.557M12.1224 25.7742L9.89161 23.557M9.89161 23.557L9.8916 23.5553M9.89161 23.557L9.8916 23.5553M9.8916 23.5553C9.8903 23.3407 9.92297 23.1318 9.98333 22.931M9.8916 23.5553L9.98333 22.931M9.98333 22.931L14.2437 22.9177C14.3047 23.1168 14.3386 23.326 14.3396 23.5428L9.98333 22.931Z" stroke="white"/>
<path d="M9.55033 4.72387L9.91534 4.56986L9.84887 4.17931C9.84475 4.1551 9.84087 4.13271 9.83725 4.11183C9.81614 3.98998 9.80391 3.91935 9.80422 3.83744L9.80424 3.83744L9.80422 3.83365C9.79962 2.60617 10.7909 1.60831 12.0192 1.60458L12.0194 1.60457C13.2473 1.60024 14.2464 2.59413 14.2512 3.82201L14.7512 3.82002L14.2512 3.82149C14.2515 3.90723 14.2375 3.99136 14.2149 4.12799C14.2135 4.1364 14.2121 4.14502 14.2106 4.15385L14.1458 4.54654L14.5139 4.69783C16.9639 5.70466 18.7562 8.24327 18.9233 11.3743L18.9233 11.3791L18.9238 11.4284C18.9244 11.471 18.9255 11.5329 18.9276 11.6115C18.9318 11.7688 18.9402 11.9937 18.9567 12.2672C18.9897 12.8132 19.0555 13.558 19.1875 14.3482C19.3189 15.1354 19.5188 15.9851 19.8264 16.7332C20.13 17.4715 20.5634 18.1727 21.1995 18.5849L21.2227 18.5999L21.2475 18.6123C21.2493 18.6133 21.2519 18.6145 21.2552 18.6161C21.3094 18.6427 21.5488 18.7601 21.7791 18.9661C22.0276 19.1884 22.1973 19.4513 22.1934 19.753C22.1894 20.0186 22.0238 20.3216 21.6362 20.5792C21.2526 20.8341 20.6972 21.007 20.0606 21.0048L20.0605 21.0048L4.40196 20.9543L4.40187 20.9543C3.76419 20.9523 3.18779 20.7746 2.79479 20.5157C2.39367 20.2514 2.25916 19.9636 2.27704 19.735L2.27706 19.7348C2.3008 19.4296 2.46797 19.1772 2.67686 18.9781C2.77926 18.8806 2.88359 18.804 2.96715 18.7497C3.00857 18.7228 3.04382 18.7021 3.06973 18.6876C3.08266 18.6804 3.09306 18.6749 3.10053 18.671C3.10758 18.6673 3.11137 18.6655 3.11171 18.6653L3.11174 18.6653L3.14308 18.6504L3.17207 18.6312C3.81457 18.2069 4.24671 17.4968 4.54534 16.7493C4.84757 15.9928 5.03717 15.1368 5.15757 14.345C5.27843 13.5503 5.33216 12.8024 5.35583 12.2545C5.3677 11.9801 5.37207 11.7545 5.37346 11.5968C5.37416 11.5179 5.37412 11.4559 5.37389 11.4131L5.37348 11.3637L5.37341 11.3584C5.48139 8.08074 7.1962 5.71719 9.55033 4.72387Z" stroke="white"/>
</svg>
