<svg width="49" height="54" viewBox="0 0 49 54" fill="none" xmlns="http://www.w3.org/2000/svg">
<path fill-rule="evenodd" clip-rule="evenodd" d="M25.9907 3.74257C25.9616 3.89205 25.945 3.94187 25.9429 3.99377C25.864 5.39717 25.8661 5.38679 27.232 5.56118C31.0992 6.05112 34.6321 7.41508 37.8143 9.66343C38.2025 9.93746 38.4121 9.91047 38.7214 9.57623C39.2445 9.00947 39.8174 8.49047 40.4235 7.89672C40.1184 7.58947 39.8506 7.32166 39.587 7.0497C38.8086 6.24212 38.7754 5.1003 39.5019 4.36123C40.2637 3.58687 41.3929 3.60348 42.2232 4.42766C43.6327 5.82484 45.0359 7.22824 46.435 8.63786C47.2549 9.46413 47.2819 10.6018 46.5201 11.3616C45.7728 12.109 44.6187 12.0695 43.7967 11.2557C43.5476 11.0087 43.3358 10.7284 43.1511 10.5146C42.4516 11.2121 41.8268 11.837 41.1895 12.4744C41.7292 13.1034 42.3623 13.7844 42.9311 14.513C46.682 19.3232 48.3862 24.7977 48.0312 30.8722C47.4002 41.6904 39.3898 50.8437 28.7992 52.9508C16.2013 55.4566 3.82969 47.6694 0.732635 35.2236C-2.58861 21.8892 5.71865 8.88699 18.8438 5.91618C19.8152 5.69612 20.8158 5.59647 21.8059 5.46568C22.1027 5.42624 22.2543 5.33904 22.2418 5.01726C22.2252 4.61866 22.2377 4.21798 22.2377 3.76956C21.9907 3.7571 21.8059 3.74257 21.6191 3.74257C20.3549 3.7405 19.0887 3.74672 17.8246 3.7405C16.6933 3.73427 15.8775 2.96821 15.8547 1.90736C15.8318 0.861035 16.6372 0.0202413 17.7664 0.0140132C21.8931 -0.00467108 26.0218 -0.00467108 30.1484 0.0140132C31.2818 0.0202413 32.054 0.850656 32.0312 1.92397C32.0104 2.98067 31.1967 3.73427 30.053 3.7405C28.8926 3.74672 27.7343 3.74257 26.576 3.74257C26.3871 3.74257 26.2003 3.74257 25.9907 3.74257ZM24.0187 49.7828C35.1428 49.8347 44.3364 40.7209 44.4007 29.5809C44.4671 18.2894 35.3711 9.08836 24.0872 9.03439C12.9278 8.98041 3.74043 18.0921 3.68231 29.2716C3.62211 40.5652 12.7078 49.7309 24.0187 49.7828Z" fill="white" fill-opacity="0.89"/>
<path fill-rule="evenodd" clip-rule="evenodd" d="M24.2437 29.8182C24.4874 29.8182 24.6619 29.8182 24.8365 29.8182C26.5076 29.8182 28.1806 29.8144 29.8517 29.8201C30.9069 29.8238 31.6417 30.4747 31.6686 31.4206C31.6974 32.4442 31.0681 33.165 29.9783 33.182C27.4957 33.2217 25.0111 33.2217 22.5285 33.1839C21.4349 33.1669 20.8095 32.4574 20.8075 31.379C20.8018 27.9376 20.8018 24.4962 20.8075 21.0548C20.8095 19.9745 21.5155 19.2461 22.5208 19.2461C23.5281 19.2461 24.236 19.9707 24.2399 21.051C24.2495 23.7564 24.2437 26.46 24.2437 29.1655C24.2437 29.3565 24.2437 29.5457 24.2437 29.8182Z" fill="white" fill-opacity="0.89"/>
</svg>
